<?xml version="1.0" encoding="utf-8"?>
<!-- Generator: Adobe Illustrator 19.2.0, SVG Export Plug-In . SVG Version: 6.00 Build 0)  -->
<svg version="1.1" id="Layer_1" xmlns="http://www.w3.org/2000/svg" xmlns:xlink="http://www.w3.org/1999/xlink" x="0px" y="0px"
	 viewBox="0 0 51 57.3" style="enable-background:new 0 0 51 57.3;" xml:space="preserve">
<style type="text/css">
	.st0{fill:none;stroke:#FFFFFF;stroke-width:0.7087;stroke-miterlimit:10;}
</style>
<g>
	<g>
		<g>
			<g>
				<g>
					<g>
						<g>
							<g>
								<path class="st0" d="M33,32.4c-8.4,0-15.2-6.9-15.2-15.3S24.6,1.8,33,1.8s15.2,6.9,15.2,15.3C48.3,25.6,41.5,32.4,33,32.4z
									 M33,2.3c-8.1,0-14.8,6.6-14.8,14.8S24.8,31.9,33,31.9c8.1,0,14.8-6.6,14.8-14.8C47.8,9,41.2,2.3,33,2.3z"/>
							</g>
						</g>
					</g>
				</g>
			</g>
		</g>
	</g>
</g>
<g>
	<g>
		<g>
			<g>
				<g>
					<g>
						<g>
							<g>
								<path class="st0" d="M29.8,55.4c-6.6,0-12-5.3-12-11.7c0-6.5,5.4-11.7,12-11.7h2.1l0,0c0.1,0,0.2,0.1,0.2,0.2
									c0,0.1-0.1,0.2-0.2,0.2h-2.1c-6.4,0-11.6,5-11.6,11.3c0,6.2,5.2,11.3,11.6,11.3c0.1,0,0.2,0.1,0.2,0.2
									C30.1,55.3,30,55.4,29.8,55.4z"/>
							</g>
						</g>
					</g>
				</g>
			</g>
		</g>
	</g>
</g>
<g>
	<g>
		<g>
			<g>
				<g>
					<g>
						<g>
							<g>
								<path class="st0" d="M48,55.4H2.2c-0.1,0-0.2-0.1-0.2-0.2V10.6c0-0.1,0.1-0.2,0.2-0.2h8.6V2.1c0-0.1,0.1-0.2,0.2-0.2h37
									c0.1,0,0.2,0.1,0.2,0.2v53.1C48.3,55.3,48.2,55.4,48,55.4z M2.5,54.9h45.3V2.3H11.3v8h8.2c0.1,0,0.2,0.1,0.2,0.2
									c0,0.1-0.1,0.2-0.2,0.2h-8.2v21.4c0,0.1-0.1,0.2-0.2,0.2c-0.1,0-0.2-0.1-0.2-0.2V10.8H2.5V54.9z"/>
							</g>
						</g>
					</g>
				</g>
			</g>
		</g>
	</g>
</g>
<g>
	<g>
		<g>
			<g>
				<g>
					<g>
						<g>
							<g>
								<path class="st0" d="M33,55.4c-0.1,0-0.2-0.1-0.2-0.2V32.3c0-0.1,0.1-0.2,0.2-0.2c0.1,0,0.2,0.1,0.2,0.2v22.8
									C33.3,55.3,33.2,55.4,33,55.4z"/>
							</g>
						</g>
					</g>
				</g>
			</g>
		</g>
	</g>
</g>
<g>
	<g>
		<g>
			<g>
				<g>
					<g>
						<g>
							<g>
								<path class="st0" d="M48,43.8H33c-0.1,0-0.2-0.1-0.2-0.2c0-0.1,0.1-0.2,0.2-0.2h15c0.1,0,0.2,0.1,0.2,0.2
									C48.3,43.7,48.2,43.8,48,43.8z"/>
							</g>
						</g>
					</g>
				</g>
			</g>
		</g>
	</g>
</g>
<g>
	<g>
		<g>
			<g>
				<g>
					<g>
						<g>
							<g>
								<path class="st0" d="M19.5,55.4c-0.1,0-0.1,0-0.2-0.1L7.7,44.5c-0.1-0.1-0.1-0.2-0.1-0.3S7.7,44,7.8,44h3.6
									c4,0,7.2-2.6,7.2-5.8s-3.3-5.8-7.2-5.8H2.3c-0.1,0-0.2-0.1-0.2-0.2c0-0.1,0.1-0.2,0.2-0.2h9.2c4.3,0,7.7,2.8,7.7,6.3
									s-3.5,6.3-7.7,6.3h-3L19.7,55c0.1,0.1,0.1,0.2,0,0.3C19.6,55.4,19.6,55.4,19.5,55.4z"/>
							</g>
						</g>
					</g>
				</g>
			</g>
		</g>
	</g>
</g>
<g>
	<g>
		<g>
			<g>
				<g>
					<g>
						<g>
							<g>
								<path class="st0" d="M31.8,32.2"/>
							</g>
						</g>
					</g>
				</g>
			</g>
		</g>
	</g>
</g>
</svg>
